<?xml version="1.0" standalone="no"?>
<!DOCTYPE svg PUBLIC "-//W3C//DTD SVG 20010904//EN"
 "http://www.w3.org/TR/2001/REC-SVG-20010904/DTD/svg10.dtd">
<svg version="1.0" xmlns="http://www.w3.org/2000/svg"
 width="1680.000000pt" height="1680.000000pt" viewBox="0 0 1680.000000 1680.000000"
 preserveAspectRatio="xMidYMid meet">
<metadata>
Created by potrace 1.16, written by Peter Selinger 2001-2019
</metadata>
<g transform="translate(0.000000,1680.000000) scale(0.100000,-0.100000)"
fill="#000000" stroke="none">
<path d="M1876 13629 c-489 -104 -826 -524 -826 -1029 0 -510 338 -927 834
-1029 l99 -21 6417 0 6417 0 99 21 c497 102 834 520 834 1031 0 507 -340 926
-834 1028 -98 20 -108 20 -6525 19 -6270 -1 -6428 -1 -6515 -20z"/>
<path d="M1876 9429 c-489 -104 -826 -524 -826 -1029 0 -510 338 -927 834
-1029 l99 -21 6417 0 6417 0 99 21 c497 102 834 520 834 1031 0 507 -340 926
-834 1028 -98 20 -108 20 -6525 19 -6270 -1 -6428 -1 -6515 -20z"/>
<path d="M1876 5229 c-489 -104 -826 -524 -826 -1029 0 -510 338 -927 834
-1029 l99 -21 6417 0 6417 0 99 21 c497 102 834 520 834 1031 0 507 -340 926
-834 1028 -98 20 -108 20 -6525 19 -6270 -1 -6428 -1 -6515 -20z"/>
</g>
</svg>
