<?xml version="1.0" standalone="no"?>
<!DOCTYPE svg PUBLIC "-//W3C//DTD SVG 20010904//EN"
 "http://www.w3.org/TR/2001/REC-SVG-20010904/DTD/svg10.dtd">
<svg version="1.0" xmlns="http://www.w3.org/2000/svg"
 width="310.000000pt" height="310.000000pt" viewBox="0 0 310.000000 310.000000"
 preserveAspectRatio="xMidYMid meet">
<metadata>
Created by potrace 1.16, written by Peter Selinger 2001-2019
</metadata>
<g transform="translate(0.000000,310.000000) scale(0.100000,-0.100000)"
fill="#000000" stroke="none">
<path d="M277 2526 c-95 -34 -152 -142 -127 -238 15 -52 84 -123 135 -137 59
-16 2459 -15 2523 1 31 8 59 25 88 53 100 100 71 251 -60 314 -42 21 -49 21
-1282 21 -1019 -1 -1246 -3 -1277 -14z"/>
<path d="M273 1687 c-158 -58 -172 -281 -23 -357 39 -20 58 -20 1300 -20 1221
0 1261 0 1298 19 48 24 66 45 93 105 40 91 0 193 -97 245 -39 21 -39 21 -1289
20 -930 0 -1258 -4 -1282 -12z"/>
<path d="M365 860 c-69 -4 -98 -10 -125 -27 -88 -54 -120 -164 -74 -253 17
-34 73 -84 109 -99 22 -8 345 -11 1290 -9 l1260 3 42 30 c78 55 108 142 78
223 -21 57 -48 88 -97 113 -37 19 -76 19 -1215 22 -648 1 -1218 0 -1268 -3z"/>
</g>
</svg>
